# xmcd
#
# Track frame offsets:
# 182
# 23822
# 46240
# 67010
# 81350
# 98342
# 114470
# 130932
# 149072
# 164615
# 183667
#
# Disc length: 2803 seconds
#
#
# Revision: 1
# Processed by: cddbd v1.5PL3 Copyright (c) Steve Scherf et al.
# Submitted via: FreeRIP 2.30 
#
DISCID=9b0af10b
DTITLE=Lennie Gallant - believing in better
DYEAR=1991
DGENRE=Folk
TTITLE0=Believing in Better
TTITLE1=Man of Steel
TTITLE2=Martyn's Brook
TTITLE3=Is it Love I Feel (or courage I lack)
TTITLE4=The Hope For Next Year
TTITLE5=How Many Bridges
TTITLE6=The Cry For Love
TTITLE7=Crumbling Foundations
TTITLE8=The Stairs
TTITLE9=Someone Like You
TTITLE10=The Other Side
EXTD=
EXTT0=
EXTT1=
EXTT2=
EXTT3=
EXTT4=
EXTT5=
EXTT6=
EXTT7=
EXTT8=
EXTT9=
EXTT10=
PLAYORDER=
